<svg width="64" height="64" viewBox="0 0 64 64" fill="none" xmlns="http://www.w3.org/2000/svg">
<path d="M25 4C11.2 4 0 15.2 0 29C0 42.8 11.2 54 25 54C38.8 54 50 42.8 50 29C50 15.2 38.8 4 25 4ZM25 49C14 49 5 40 5 29C5 18 14 9 25 9C36 9 45 18 45 29C45 40 36 49 25 49Z" fill="#4D5357"/>
<path d="M18.4 21.3C19.3 20.3 20.4 19.5 21.7 19C23 18.4 24.3 18.1 25.7 18.1C27.4 18.1 29.1 18.5 30.5 19.4C31.9 20.2 33.2 21.4 34.1 22.7L37.7 20C36.3 18.2 34.6 16.6 32.6 15.6C30.5 14.5 28.3 14 25.8 14C23.8 14 21.8 14.4 20 15.2C18.2 16 16.6 17.1 15.3 18.4C14 19.8 12.9 21.3 12.1 23.2C11.3 25 10.9 27 10.9 29C10.9 31.1 11.3 33 12.1 34.8C12.9 36.6 13.9 38.2 15.3 39.6C16.6 41 18.2 42 20 42.8C21.8 43.6 23.7 44 25.8 44C28.3 44 30.6 43.5 32.6 42.4C34.6 41.3 36.4 39.8 37.7 38L34.1 35.3C33.2 36.7 32 37.8 30.5 38.6C29 39.4 27.4 39.8 25.7 39.8C24.3 39.8 23 39.5 21.7 38.9C20.5 38.3 19.4 37.5 18.4 36.6C17.5 35.6 16.7 34.5 16.2 33.2C15.7 31.9 15.4 30.5 15.4 29C15.4 27.5 15.7 26.1 16.2 24.8C16.7 23.5 17.5 22.3 18.4 21.3" fill="#4D5357"/>
</svg>
