<svg width="24" height="22" viewBox="0 0 24 22" fill="none" xmlns="http://www.w3.org/2000/svg">
<path d="M23.4844 0.6875H0.515625C0.386719 0.6875 0.28125 0.792969 0.28125 0.921875V2.79688C0.28125 2.92578 0.386719 3.03125 0.515625 3.03125H23.4844C23.6133 3.03125 23.7188 2.92578 23.7188 2.79688V0.921875C23.7188 0.792969 23.6133 0.6875 23.4844 0.6875ZM23.4844 18.9688H0.515625C0.386719 18.9688 0.28125 19.0742 0.28125 19.2031V21.0781C0.28125 21.207 0.386719 21.3125 0.515625 21.3125H23.4844C23.6133 21.3125 23.7188 21.207 23.7188 21.0781V19.2031C23.7188 19.0742 23.6133 18.9688 23.4844 18.9688ZM23.4844 9.82812H0.515625C0.386719 9.82812 0.28125 9.93359 0.28125 10.0625V11.9375C0.28125 12.0664 0.386719 12.1719 0.515625 12.1719H23.4844C23.6133 12.1719 23.7188 12.0664 23.7188 11.9375V10.0625C23.7188 9.93359 23.6133 9.82812 23.4844 9.82812Z" fill="#4C68EF "/>
</svg>
