<svg width="35" height="35" viewBox="0 0 35 35" fill="none" xmlns="http://www.w3.org/2000/svg">
<path d="M24.3443 12.0685C25.2084 12.0685 25.9089 11.3633 25.9089 10.4935C25.9089 9.62361 25.2084 8.91846 24.3443 8.91846C23.4802 8.91846 22.7797 9.62361 22.7797 10.4935C22.7797 11.3633 23.4802 12.0685 24.3443 12.0685Z" fill="#4c68ef"/>
<path d="M17.3841 10.7603C16.0599 10.7603 14.7655 11.1555 13.6645 11.8961C12.5635 12.6367 11.7054 13.6893 11.1987 14.9208C10.6919 16.1523 10.5593 17.5074 10.8177 18.8148C11.076 20.1222 11.7136 21.3231 12.65 22.2656C13.5863 23.2082 14.7792 23.8501 16.0779 24.1101C17.3767 24.3702 18.7228 24.2367 19.9462 23.7266C21.1695 23.2165 22.2152 22.3526 22.9508 21.2443C23.6865 20.136 24.0791 18.8329 24.0791 17.4999C24.0791 15.7125 23.3738 13.9982 22.1182 12.7343C20.8626 11.4703 19.1597 10.7603 17.3841 10.7603ZM17.3841 21.8749C16.5245 21.8749 15.6843 21.6184 14.9696 21.1376C14.2549 20.6569 13.6978 19.9736 13.3689 19.1742C13.0399 18.3748 12.9539 17.4951 13.1216 16.6464C13.2893 15.7978 13.7032 15.0182 14.311 14.4063C14.9188 13.7945 15.6932 13.3778 16.5362 13.209C17.3793 13.0402 18.2531 13.1268 19.0472 13.458C19.8414 13.7891 20.5201 14.3499 20.9977 15.0693C21.4752 15.7888 21.7301 16.6346 21.7301 17.4999C21.7301 18.6603 21.2722 19.7731 20.4572 20.5935C19.6421 21.414 18.5367 21.8749 17.3841 21.8749Z" fill="#4c68ef"/>
<path d="M17.3841 6.73969C20.8653 6.73969 21.2781 6.75281 22.6526 6.81625C23.4792 6.82613 24.298 6.97893 25.0733 7.26797C25.6357 7.48638 26.1465 7.82091 26.5728 8.25002C26.9991 8.67914 27.3314 9.19334 27.5484 9.75953C27.8355 10.54 27.9873 11.3642 27.9971 12.1964C28.0601 13.58 28.0731 13.9956 28.0731 17.5011C28.0731 21.0066 28.0601 21.42 27.9971 22.8036C27.9873 23.6358 27.8355 24.46 27.5484 25.2405C27.3314 25.8067 26.9991 26.3209 26.5728 26.75C26.1465 27.1791 25.6357 27.5136 25.0733 27.732C24.298 28.0211 23.4792 28.1739 22.6526 28.1837C21.2781 28.2472 20.8653 28.2603 17.3841 28.2603C13.9029 28.2603 13.49 28.2472 12.1156 28.1837C11.289 28.1739 10.4701 28.0211 9.69488 27.732C9.13244 27.5136 8.62164 27.1791 8.19537 26.75C7.7691 26.3209 7.43678 25.8067 7.21982 25.2405C6.93269 24.46 6.78091 23.6358 6.77109 22.8036C6.70807 21.42 6.69504 21.0044 6.69504 17.5C6.69504 13.9956 6.70807 13.58 6.77109 12.1964C6.78091 11.3642 6.93269 10.54 7.21982 9.75953C7.43678 9.19334 7.7691 8.67914 8.19537 8.25002C8.62164 7.82091 9.13244 7.48638 9.69488 7.26797C10.4701 6.97893 11.289 6.82613 12.1156 6.81625C13.49 6.75281 13.9029 6.73969 17.3841 6.73969M17.3841 4.375C13.8432 4.375 13.3988 4.39031 12.0081 4.45375C10.9267 4.47573 9.85694 4.68209 8.84415 5.06406C7.9779 5.40126 7.1912 5.91694 6.53447 6.57805C5.87774 7.23916 5.36547 8.0311 5.03051 8.90313C4.65095 9.92302 4.44595 11.0003 4.42424 12.0892C4.36122 13.4892 4.34601 13.9344 4.34601 17.5C4.34601 21.0656 4.36122 21.5119 4.42424 22.9119C4.44607 24.0004 4.65107 25.0773 5.03051 26.0969C5.36547 26.9689 5.87774 27.7608 6.53447 28.4219C7.1912 29.0831 7.9779 29.5987 8.84415 29.9359C9.85728 30.318 10.9275 30.5244 12.0091 30.5462C13.3999 30.6097 13.8432 30.625 17.3841 30.625C20.925 30.625 21.3694 30.6097 22.7601 30.5462C23.8418 30.5244 24.912 30.318 25.9251 29.9359C26.7914 29.5987 27.5781 29.0831 28.2348 28.4219C28.8915 27.7608 29.4038 26.9689 29.7388 26.0969C30.1179 25.0769 30.3226 23.9996 30.3439 22.9108C30.407 21.5108 30.4222 21.0656 30.4222 17.5C30.4222 13.9344 30.407 13.4881 30.3439 12.0881C30.3221 10.9996 30.1171 9.92267 29.7377 8.90313C29.4027 8.0311 28.8904 7.23916 28.2337 6.57805C27.577 5.91694 26.7903 5.40126 25.924 5.06406C24.9108 4.68234 23.8407 4.47635 22.759 4.45484C21.3683 4.38922 20.9261 4.375 17.3841 4.375Z" fill="#4c68ef"/>
</svg>
