<svg width="30" height="30" viewBox="0 0 30 30" fill="none" xmlns="http://www.w3.org/2000/svg">
<path fill-rule="evenodd" clip-rule="evenodd" d="M3.37822e-07 4.2975C3.37822e-07 3.68817 0.240455 3.10379 0.668466 2.67293C1.09648 2.24206 1.67699 2 2.28229 2H25.0331C25.3331 1.99951 25.6302 2.05858 25.9075 2.17384C26.1847 2.28909 26.4367 2.45827 26.6489 2.67167C26.8611 2.88508 27.0295 3.13853 27.1442 3.41752C27.259 3.6965 27.318 3.99553 27.3179 4.2975V27.2C27.3182 27.502 27.2594 27.8012 27.1447 28.0803C27.0301 28.3594 26.8619 28.613 26.6499 28.8266C26.4378 29.0403 26.1859 29.2097 25.9087 29.3252C25.6315 29.4408 25.3344 29.5002 25.0344 29.5H2.28229C1.98247 29.5 1.68559 29.4405 1.40861 29.325C1.13163 29.2095 0.879973 29.0401 0.668027 28.8266C0.456081 28.6132 0.287995 28.3597 0.173372 28.0809C0.0587499 27.802 -0.000162784 27.5031 3.37822e-07 27.2013V4.2975ZM10.8129 12.485H14.512V14.355C15.0459 13.28 16.4118 12.3125 18.4644 12.3125C22.3994 12.3125 23.332 14.4538 23.332 18.3825V25.66H19.3498V19.2775C19.3498 17.04 18.8158 15.7775 17.4599 15.7775C15.5786 15.7775 14.7964 17.1388 14.7964 19.2775V25.66H10.8129V12.485ZM3.98344 25.4888H7.96689V12.3125H3.98344V25.4875V25.4888ZM8.53684 8.015C8.54435 8.35834 8.48366 8.69974 8.35833 9.01915C8.233 9.33856 8.04555 9.62955 7.80699 9.87504C7.56843 10.1205 7.28357 10.3156 6.96911 10.4488C6.65465 10.5819 6.31694 10.6505 5.97579 10.6505C5.63464 10.6505 5.29692 10.5819 4.98247 10.4488C4.66801 10.3156 4.38314 10.1205 4.14458 9.87504C3.90602 9.62955 3.71858 9.33856 3.59325 9.01915C3.46792 8.69974 3.40722 8.35834 3.41474 8.015C3.42948 7.34107 3.70578 6.69974 4.18446 6.22836C4.66315 5.75698 5.30616 5.49303 5.97579 5.49303C6.64542 5.49303 7.28843 5.75698 7.76711 6.22836C8.2458 6.69974 8.5221 7.34107 8.53684 8.015V8.015Z" fill="#4c68ef"/>
</svg>
